# xmcd
#
# Track frame offsets:
#	150
#	21422
#	33948
#	45757
#	58954
#	74022
#	95134
#	113089
#	124982
#	138237
#	157194
#	166519
#	179697
#	192391
#	204762
#	216450
#	241718
#
# Disc length: 3609 seconds
#
# Revision: 0
# Processed by: cddbd v1.5.1PL2 Copyright (c) Steve Scherf et al.
# Submitted via: dBpowerAMP V4.0
#
DISCID=f80e1711
DTITLE=Mike Compton and David Long - Stomp
DYEAR=2006
DGENRE=Bluegrass
TTITLE0=Evening Prayer Blues
TTITLE1=Mississippi Bound
TTITLE2=Ashland Breakdown
TTITLE3=Every Humble Knee Must Bow
TTITLE4=Old Mountaineer
TTITLE5=Big Indian Blues
TTITLE6=The Old Ark's A Movin'
TTITLE7=January Nightmare
TTITLE8=Stomp
TTITLE9=How You Want It Done?
TTITLE10=Vicksburg Stomp
TTITLE11=Centipede Hop
TTITLE12=Standing On Jesus
TTITLE13=Black's Run
TTITLE14=Sweet Lizzie
TTITLE15=Prison Blues
TTITLE16=Tanyards
EXTD=
EXTT0=
EXTT1=
EXTT2=
EXTT3=
EXTT4=
EXTT5=
EXTT6=
EXTT7=
EXTT8=
EXTT9=
EXTT10=
EXTT11=
EXTT12=
EXTT13=
EXTT14=
EXTT15=
EXTT16=
PLAYORDER=
